<svg xmlns="http://www.w3.org/2000/svg" xmlns:xlink="http://www.w3.org/1999/xlink" version="1.1" width="792pt" height="612pt" viewBox="0 0 792 612">
<g>
<g id="layer_1" data-name="Layer 1">
<path transform="matrix(1,0,0,-1,0,612)" d="M380.0738 267.5526V355.1105H368.8486V256.8895H423.1514V267.5526Z" fill="#333333"/>
<path transform="matrix(1,0,0,-1,0,612)" d="M232.3191 256.8895V288.5593 352.283L215.7625 335.7264V332.4529 288.5593 256.8895Z" fill="#333333"/>
<path transform="matrix(1,0,0,-1,0,612)" d="M215.7622 338.5539 232.3191 355.1108H215.7622Z" fill="#528299" fill-rule="evenodd"/>
<path transform="matrix(1,0,0,-1,0,612)" d="M217.8893 216.4759V235.0752H215.7642V216.4759ZM243.3101 216.4759V235.0752H241.2111V220.1162L230.0513 235.0752H227.8463V216.4759H229.9714V231.4089L241.1311 216.4759ZM265.0368 233.0294V235.0752H250.7689V233.0294H256.8268V216.4759H258.952V233.0294ZM285.0633 233.0294V235.0752H272.4429V216.4759H285.4091V218.4951H274.5677V224.8722H283.9479V226.9179H274.5677V233.0294ZM306.2322 216.4759H308.6504L304.293 222.7997C305.6437 223.2422 306.6707 223.9733 307.3836 224.9875 308.0965 226.0057 308.4599 227.2859 308.4644 228.8313 308.4599 230.1554 308.1719 231.2802 307.5962 232.2096 307.0205 233.14 306.1882 233.8483 305.0986 234.3353 304.0089 234.8271 302.6849 235.0704 301.1309 235.0752H294.0633V216.4759H296.1884V222.3479H301.1309C301.3435 222.3479 301.5561 222.3527 301.7642 222.366 301.9765 222.3746 302.1806 222.3879 302.3799 222.4012ZM296.1884 224.3937V233.0294H301.1309C302.26 233.0294 303.2167 232.8701 304.0004 232.5555 304.7888 232.2363 305.3866 231.7626 305.7982 231.1342 306.21 230.5003 306.4181 229.7169 306.4181 228.7777 306.4181 227.8123 306.21 227.0018 305.7982 226.3555 305.3866 225.7044 304.7888 225.2134 304.0004 224.8855 303.2167 224.5578 302.26 224.3937 301.1309 224.3937ZM333.0612 216.4759V235.0752H330.9622V220.1162L319.8022 235.0752H317.5971V216.4759H319.7222V231.4089L330.882 216.4759ZM355.6647 233.0294V235.0752H343.044V216.4759H356.0105V218.4951H345.1691V224.8722H354.549V226.9179H345.1691V233.0294ZM376.4083 233.0294V235.0752H362.1404V233.0294H368.1986V216.4759H370.3235V233.0294ZM411.5004 216.1307 412.6158 217.2994 409.4014 220.4614C409.7996 220.9927 410.1715 221.5684 410.5213 222.1929 410.8666 222.8131 411.1946 223.4775 411.5004 224.1811L410.0922 225.2707C409.8129 224.5796 409.5164 223.9285 409.1973 223.327 408.8789 222.7198 408.5376 222.162 408.1791 221.6568 407.249 222.5738 406.4071 223.4194 405.6503 224.1992 404.8971 224.9782 404.2335 225.6959 403.6618 226.3603 404.2463 226.6614 404.8087 226.98 405.3538 227.308 405.9028 227.6396 406.3898 228.0027 406.8283 228.3973 407.2623 228.7911 407.6073 229.2344 407.8647 229.7254 408.1212 230.222 408.2545 230.7796 408.2584 231.4089 408.2545 232.1478 408.0725 232.7987 407.7139 233.3611 407.3596 233.9195 406.859 234.358 406.2172 234.6721 405.5749 234.9913 404.818 235.1503 403.9543 235.1551 403.0466 235.1503 402.249 234.9731 401.5721 234.6367 400.8943 234.2954 400.3625 233.8217 399.9861 233.2239 399.6102 232.6215 399.4149 231.9313 399.4109 231.143 399.4109 230.4697 399.5702 229.7741 399.8889 229.0618 400.208 228.344 400.6857 227.5778 401.3235 226.7586 400.7744 226.4709 400.248 226.1563 399.7429 225.8198 399.2423 225.4833 398.7904 225.1069 398.3967 224.695 397.9981 224.2786 397.6838 223.8046 397.453 223.2777 397.2231 222.7465 397.1032 222.1441 397.0993 221.4711 397.1032 220.7361 397.2498 220.0584 397.5284 219.4427 397.8122 218.8227 398.2062 218.2825 398.7065 217.8266 399.2117 217.366 399.7962 217.0117 400.4606 216.7551 401.1287 216.5026 401.8504 216.3739 402.6254 216.3699 403.6796 216.3739 404.6893 216.6219 405.6588 217.1137 406.6291 217.6053 407.5367 218.3051 408.3917 219.2128ZM401.1109 231.1696C401.1154 231.6521 401.2308 232.0858 401.4655 232.467 401.6959 232.852 402.0231 233.1533 402.4483 233.3792 402.8734 233.6003 403.3738 233.7157 403.9543 233.7205 404.49 233.7205 404.9504 233.6224 405.3404 233.428 405.7257 233.2372 406.0267 232.9673 406.2393 232.6215 406.4471 232.2763 406.5579 231.8732 406.5579 231.4089 406.554 230.9477 406.4519 230.5318 406.2481 230.1599 406.0449 229.7874 405.7656 229.451 405.411 229.1457 405.0573 228.8358 404.6539 228.5478 404.1935 228.2774 403.7332 228.0076 403.2459 227.7417 402.7323 227.4758 402.2005 228.1887 401.798 228.8492 401.5227 229.451 401.2481 230.0579 401.1109 230.629 401.1109 231.1696ZM402.7056 218.0699C402.1651 218.0699 401.6599 218.1586 401.1956 218.3309 400.7305 218.5044 400.3231 218.7476 399.9733 219.062 399.6235 219.3806 399.3489 219.7531 399.1538 220.1871 398.9546 220.6208 398.8573 221.1038 398.8525 221.6302 398.8573 222.0953 398.9458 222.516 399.1229 222.897 399.2995 223.2777 399.5436 223.6235 399.8534 223.9418 400.1632 224.2613 400.5224 224.553 400.9249 224.8277 401.3328 225.102 401.7665 225.364 402.2271 225.616 402.8513 224.8894 403.5824 224.0926 404.4146 223.2337 405.2432 222.37 406.1727 221.4269 407.1954 220.4082 406.514 219.6598 405.7963 219.0841 405.0391 218.681 404.2823 218.2785 403.5073 218.0744 402.7056 218.0699ZM434.503 235.0752V216.4759H441.9425C443.0407 216.4805 444.0767 216.6313 445.0465 216.9363 446.0207 217.2376 446.9023 217.6673 447.7039 218.2252 448.501 218.7828 449.1918 219.4472 449.7678 220.2177 450.3475 220.9887 450.7946 221.8388 451.1092 222.7779 451.4236 223.7162 451.5829 224.7129 451.5877 225.7758 451.5829 226.838 451.4284 227.8349 451.1137 228.7738 450.7994 229.712 450.356 230.5624 449.7812 231.3334 449.2052 232.1036 448.5229 232.7681 447.7306 233.3259 446.9377 233.8838 446.0607 234.3135 445.0997 234.6146 444.1348 234.9204 443.1112 235.0704 442.0225 235.0752ZM436.6281 233.0294H441.9692C443.0186 233.0246 443.9928 232.8435 444.8965 232.4803 445.7993 232.1169 446.5877 231.6078 447.2654 230.9522 447.9471 230.3011 448.4744 229.5309 448.8554 228.6454 449.2361 227.7635 449.4311 226.7986 449.4351 225.7492 449.4311 224.7083 449.2406 223.7474 448.8642 222.8658 448.4923 221.9896 447.9698 221.2186 447.296 220.5675 446.6276 219.9169 445.8441 219.4072 444.9538 219.0441 444.0594 218.6855 443.0894 218.4996 442.0485 218.4951H436.6281ZM471.5609 221.1792 473.6333 216.4759H475.9449L467.6287 235.0752H465.4236L457.0798 216.4759H459.339L461.4114 221.1792ZM470.658 223.2249H462.3143L466.4597 232.6575ZM494.9354 233.0294V235.0752H480.6677V233.0294H486.7257V216.4759H488.8508V233.0294ZM514.1117 221.1792 516.1842 216.4759H518.4958L510.1795 235.0752H507.9745L499.6307 216.4759H501.8896L503.962 221.1792ZM513.2089 223.2249H504.8651L509.0105 232.6575ZM542.4282 218.4951V235.0752H540.303V216.4759H550.5851V218.4951ZM570.1334 221.1792 572.2058 216.4759H574.5175L566.2012 235.0752H563.9961L555.6523 216.4759H557.9113L559.9837 221.1792ZM569.2306 223.2249H560.8868L565.0322 232.6575ZM581.7643 235.0752V216.4759H589.735C591.139 216.4805 592.3392 216.6837 593.3353 217.0823 594.3362 217.4814 595.0979 218.0565 595.6296 218.8094 596.1609 219.5626 596.4267 220.4663 596.4307 221.5244 596.4267 222.3785 596.2581 223.1317 595.9261 223.7873 595.5897 224.447 595.1066 224.9827 594.4734 225.3994 593.8404 225.8152 593.0787 226.0896 592.1799 226.2268 592.9101 226.3822 593.5258 226.6481 594.0349 227.0333 594.5488 227.4137 594.934 227.8922 595.2044 228.4679 595.4698 229.0436 595.607 229.6947 595.607 230.4252 595.603 231.404 595.3592 232.2363 594.8853 232.9322 594.4068 233.6224 593.7205 234.1542 592.8262 234.5213 591.9318 234.8844 590.8558 235.0704 589.6023 235.0752ZM583.8894 233.0294H589.4963C590.3334 233.0294 591.0463 232.914 591.6348 232.6842 592.2238 232.4537 592.6708 232.1218 592.9855 231.6832 593.2953 231.2447 593.4552 230.709 593.4552 230.08 593.4552 229.4337 593.2953 228.8846 592.9855 228.4328 592.6708 227.9809 592.2238 227.6396 591.6348 227.4052 591.0463 227.1705 590.3334 227.0506 589.4963 227.0506H583.8894ZM583.8894 225.0315H589.4963C590.51 225.0315 591.3694 224.9028 592.0826 224.6462 592.795 224.3937 593.3353 224.0266 593.7117 223.5481 594.0884 223.0696 594.2789 222.4939 594.2789 221.8161 594.2789 221.1077 594.0884 220.5054 593.7117 220.0096 593.3353 219.5178 592.795 219.1419 592.0826 218.8848 591.3694 218.6283 590.51 218.4951 589.4963 218.4951H583.8894Z" fill="#333333"/>
<path transform="matrix(1,0,0,-1,0,612)" d="M560.9412 331.2567C554.44 331.2326 548.7803 329.7832 543.9166 326.954 539.0518 324.1006 535.2398 320.0777 532.4564 314.8401V361.004H521.5124V256.8895H532.4564V272.7454C535.2157 267.5767 539.0518 263.6005 543.9396 260.7712 548.8274 257.9423 554.6027 256.5145 561.2221 256.4685 566.4609 256.4915 571.2545 257.4043 575.5572 259.2048 579.8614 261.0054 583.5552 263.5546 586.6665 266.8518 589.7996 270.15 592.185 274.0791 593.8685 278.6159 595.5761 283.1513 596.4177 288.1562 596.4406 293.6517 596.4177 299.2173 595.552 304.293 593.8455 308.8757 592.115 313.4605 589.6826 317.4355 586.5253 320.7796 583.3911 324.1006 579.649 326.6731 575.3004 328.4974 570.9733 330.321 566.2037 331.2326 560.9412 331.2567ZM558.9765 266.4309C555.0718 266.4539 551.4925 267.1328 548.2664 268.4653 545.0394 269.799 542.2331 271.6926 539.8707 274.125 537.5083 276.5803 535.6848 279.4805 534.4211 282.8245 533.1353 286.1688 532.4805 289.8867 532.4564 293.9326 532.4805 297.9556 533.1353 301.6267 534.4211 304.9707 535.6848 308.3148 537.5083 311.2393 539.8707 313.6946 542.2331 316.1497 545.0394 318.0444 548.2664 319.3999 551.4925 320.7325 555.0718 321.4114 558.9765 321.4355 562.8586 321.4114 566.3897 320.7325 569.6178 319.377 572.8209 318.0203 575.6043 316.103 577.9655 313.6235 580.305 311.1681 582.1296 308.2689 583.4151 304.9237 584.7018 301.5797 585.3328 297.9085 585.3557 293.9326 585.3328 289.9108 584.7018 286.2386 583.4151 282.8945 582.1296 279.5505 580.305 276.6501 577.9655 274.1706 575.6043 271.7167 572.8209 269.822 569.6178 268.4883 566.3897 267.1328 562.8586 266.4539 558.9765 266.4309" fill="#333333"/>
<path transform="matrix(1,0,0,-1,0,612)" d="M485.7318 256.8895H496.3949L496.2552 305.7197C496.2081 311.0281 495.0624 315.5879 492.8641 319.3999 490.6667 323.189 487.4383 326.1121 483.2297 328.1695 479.0208 330.2053 473.8751 331.2326 467.7707 331.2567 463.6089 331.2567 459.8198 330.859 456.4528 330.0871 453.0855 329.2923 449.8815 328.1695 446.864 326.696 443.8239 325.1993 440.7367 323.3999 437.6035 321.2943L442.2345 313.2967C446.0695 315.9859 449.9286 318.0444 453.7862 319.517 457.6453 320.9664 461.6215 321.6923 465.6662 321.7153 470.016 321.7153 473.6639 321.0134 476.5873 319.6338 479.5345 318.2783 481.733 316.3139 483.2297 313.7414 484.7031 311.1681 485.4509 308.0809 485.4509 304.4557V300.1059H461.1764C455.3541 300.037 450.3951 299.1484 446.2804 297.4178 442.1633 295.6873 439.0061 293.2549 436.8319 290.1206 434.6563 286.9875 433.5576 283.2454 433.5335 278.9186 433.5576 275.7155 434.1427 272.7454 435.3111 270.0091 436.481 267.2739 438.1645 264.8874 440.3628 262.8286 442.5613 260.7953 445.1794 259.2048 448.2666 258.0591 451.355 256.9365 454.8161 256.3515 458.6511 256.3285 464.5664 256.3285 469.8292 257.3104 474.4128 259.2989 478.9967 261.2633 482.7606 264.2553 485.7318 268.2544ZM460.7555 265.8691C457.2714 265.8932 454.2772 266.4539 451.7277 267.5526 449.2026 268.6535 447.2379 270.2188 445.8824 272.2303 444.5028 274.2418 443.8009 276.6042 443.7768 279.3393 443.7768 283.4096 445.3676 286.4027 448.5489 288.3671 451.7048 290.3077 456.4057 291.2893 462.5802 291.2664H485.591V282.4279C484.6323 278.9898 482.9956 276.0423 480.6802 273.587 478.3649 271.1075 475.5115 269.2142 472.1216 267.8805 468.7305 266.548 464.9414 265.8932 460.7555 265.8691" fill="#333333"/>
<path transform="matrix(1,0,0,-1,0,612)" d="M274.6967 298.5506V292.7381 290.9245 271.7634H298.8312C303.6249 271.7861 308.0687 272.628 312.1379 274.2885 316.2305 275.9479 319.7846 278.3103 322.8248 281.3275 325.8652 284.368 328.2506 287.9691 329.934 292.1318 331.6187 296.2706 332.4832 300.8546 332.5073 305.8591 332.4832 310.911 331.5946 315.5176 329.864 319.7035 328.1335 323.8894 325.7022 327.5144 322.5909 330.5786 319.4578 333.6418 315.8328 336.0033 311.6699 337.6868 307.508 339.3714 302.9941 340.2133 298.1293 340.2371H274.6967V307.1755 300.3639ZM258.1401 292.7381V298.5506 300.3639 307.1755 335.7264L277.524 355.1102H298.4102C305.8234 355.0861 312.6056 353.8477 318.7789 351.438 324.9533 349.0299 330.3091 345.6386 334.8686 341.2417 339.4054 336.846 342.9136 331.6544 345.416 325.6909 347.9182 319.7276 349.181 313.1563 349.204 306.0003 349.181 298.8913 347.8955 292.343 345.3931 286.3794 342.8666 280.3918 339.3354 275.2243 334.7515 270.8274 330.1679 266.4065 324.7665 262.9925 318.5461 260.5842 312.3017 258.1529 305.4725 256.9363 297.9893 256.8892H258.1401V290.9245Z" fill="#333333"/>
<path transform="matrix(1,0,0,-1,0,612)" d="M258.1401 338.5539 274.697 355.1108H258.1401Z" fill="#528299" fill-rule="evenodd"/>
</g>
</g>
</svg>
